<svg xmlns="http://www.w3.org/2000/svg" version="1.2" preserveAspectRatio="none"
     viewBox="0 0 24 24" width="48" height="48"><g transform="translate(0, 0)"><g transform="translate(0, 0) rotate(0)"><path d="M0,50.66667h59.16667v-12.66667h-59.16667zM5.91667,41.16667h5.91667v6.33333h-5.91667zM0,0v12.66667h59.16667v-12.66667zM11.83333,9.5h-5.91667v-6.33333h5.91667zM0,31.66667h59.16667v-12.66667h-59.16667zM5.91667,22.16667h5.91667v6.33333h-5.91667z" style="stroke-width: 0; stroke-linecap: butt; stroke-linejoin: miter; fill: rgb(187, 165, 225);"/></g><defs><path id="path-161217406974318" d="M0,50.66667h59.16667v-12.66667h-59.16667zM5.91667,41.16667h5.91667v6.33333h-5.91667zM0,0v12.66667h59.16667v-12.66667zM11.83333,9.5h-5.91667v-6.33333h5.91667zM0,31.66667h59.16667v-12.66667h-59.16667zM5.91667,22.16667h5.91667v6.33333h-5.91667z"/></defs></g></svg>